Results
version=1
nRows=18
nColumns=35
inDegrees=yes
endheader
time	/jointset/boatJoint/bJoint_3/value	/jointset/boatJoint/bJoint_3/speed	/jointset/seatJoint/seatpos/value	/jointset/seatJoint/seatpos/speed	/jointset/starboardlockJoint/slocangle/value	/jointset/starboardlockJoint/slocangle/speed	/jointset/starboardoarJoint/soarinout/value	/jointset/starboardoarJoint/soarinout/speed	/jointset/starboardbladeJoint/sblpos/value	/jointset/starboardbladeJoint/sblpos/speed	/jointset/hipJoint/hipangle/value	/jointset/hipJoint/hipangle/speed	/jointset/knee_Joint/kneeangle/value	/jointset/knee_Joint/kneeangle/speed	/jointset/foot_Joint/footangle/value	/jointset/foot_Joint/footangle/speed	/jointset/lbackJoint/lbackangle/value	/jointset/lbackJoint/lbackangle/speed	/jointset/upper_arm_left_Joint/uarmleft_out/value	/jointset/upper_arm_left_Joint/uarmleft_out/speed	/jointset/upper_arm_left_Joint/uarmleft_trn/value	/jointset/upper_arm_left_Joint/uarmleft_trn/speed	/jointset/upper_arm_left_Joint/uarmleft_up/value	/jointset/upper_arm_left_Joint/uarmleft_up/speed	/jointset/lower_arm_left_Joint/se_inout/value	/jointset/lower_arm_left_Joint/se_inout/speed	/jointset/lower_arm_left_Joint/se_updown/value	/jointset/lower_arm_left_Joint/se_updown/speed	/jointset/handle_left_Joint/handleleft_out/value	/jointset/handle_left_Joint/handleleft_out/speed	/jointset/handle_left_Joint/handleleft_trn/value	/jointset/handle_left_Joint/handleleft_trn/speed	/jointset/handle_left_Joint/handleleft_up/value	/jointset/handle_left_Joint/handleleft_up/speed
      0.78800000	     -0.50024073	     -0.58356120	     -0.00942425	      0.23490937	     -6.89159734	   -144.95633053	     17.91961629	      1.19518610	    -17.91961629	     -1.19518610	     88.64770041	    126.74376048	     14.01596474	   -237.37175961	     12.66366514	   -110.62799913	    -17.41551374	   -115.54604629	     31.55555882	    248.90148615	     15.44550213	   -182.16483243	    -72.51405105	   -180.72794502	    -24.82012025	   -329.19070146	     18.54836254	    351.15423351	     -7.77030856	     24.72656449	     63.52395357	    181.09800713	     40.62219943	    -87.25525032
      0.79000000	     -0.50142916	     -0.60767529	     -0.00891552	      0.27981125	     -7.18273357	   -146.14104347	     17.92113422	      0.36465850	    -17.92113422	     -0.36465850	     88.92742890	    156.86512922	     13.49217872	   -293.66893913	     12.41960763	   -136.80380991	    -17.64481576	   -113.39832913	     32.04899593	    243.22562008	     15.08567820	   -177.55134445	    -72.87504882	   -180.32421003	    -25.46714256	   -316.14776221	     19.24425627	    344.70742663	     -7.47345090	     17.74921067	     63.90011580	    174.68175557	     40.33885647	    -86.35921340
      0.79200000	     -0.50267284	     -0.63405417	     -0.00830178	      0.32986905	     -7.47560331	   -146.49945339	     17.92159185	      0.31487150	    -17.92159185	     -0.31487150	     89.28018043	    194.49757577	     12.83195317	   -363.93958802	     12.11213360	   -169.44201225	    -17.86893737	   -110.98035476	     32.52403154	    230.87935381	     14.73450736	   -174.12118991	    -73.23796209	   -183.86361310	    -26.07867743	   -294.03691146	     19.93034645	    343.00875338	     -7.19151472	     10.99763072	     64.26111599	    167.94778449	     40.05689579	    -81.17526215
      0.79400000	     -0.50395138	     -0.63969647	     -0.00762672	      0.33445608	     -7.76783280	   -145.52408056	     17.92314707	      1.40167290	    -17.92314707	     -1.40167290	     89.69056418	    209.82429287	     12.06427596	   -392.38957477	     11.75484015	   -182.56528190	    -18.09077169	   -111.59030532	     32.97089646	    216.06056254	     14.38703073	   -173.93829424	    -73.61473461	   -193.76546286	    -26.63992934	   -266.86435110	     20.62271043	    350.94111328	     -6.93849600	      7.84236133	     64.60823682	    162.98894673	     39.79643802	    -72.75977305
      0.79600000	     -0.50521632	     -0.62235321	     -0.00700040	      0.28432789	     -8.05744633	   -144.16631062	     17.92730387	      2.64487590	    -17.92730387	     -2.64487590	     90.09631263	    190.41060877	     11.30571123	   -355.87763473	     11.40202386	   -165.46702596	    -18.31799851	   -116.25277289	     33.39084137	    205.09140541	     14.03739249	   -175.80110923	    -74.01284653	   -203.40257286	    -27.14779753	   -242.19589327	     21.33674275	    362.81989536	     -6.71406293	      8.31219279	     64.94349160	    157.87036532	     39.56572470	    -65.34329342
      0.79800000	     -0.50643631	     -0.59803634	     -0.00650307	      0.21321181	     -8.34526973	   -143.95280851	     17.93289600	      2.63542775	    -17.93289600	     -2.63542775	     90.43913318	    151.40927584	     10.66513717	   -282.84444715	     11.10427035	   -131.43517131	    -18.55702948	   -122.80724105	     33.79749513	    203.51115663	     13.68436301	   -176.85528025	    -74.42307762	   -205.13552786	    -27.61643199	   -229.12899273	     22.06990140	    368.56974404	     -6.49943212	      9.53684010	     65.26546182	    151.31761960	     39.34897233	    -63.59513308
      0.80000000	     -0.50761198	     -0.57886299	     -0.00613615	      0.15895114	     -8.63424385	   -145.21388522	     17.93683232	      1.10376557	    -17.93683232	     -1.10376557	     90.70596634	    118.44078861	     10.16676808	   -221.17128640	     10.87273442	   -102.73049779	    -18.80796340	   -127.47581863	     34.21238625	    213.20929705	     13.33123994	   -175.99478879	    -74.83050287	   -202.53643427	    -28.07626153	   -233.97820547	     22.80571938	    366.36448722	     -6.26798723	      9.17324995	     65.57678143	    148.74004215	     39.11543903	    -68.52877001
      0.80200000	     -0.50875430	     -0.56350749	     -0.00584506	      0.13801950	     -8.92627214	   -146.69795723	     17.93719187	     -0.60484240	    -17.93719187	      0.60484240	     90.92740183	    107.22761280	      9.75333540	   -200.16784456	     10.68073723	    -92.94023176	    -19.06360588	   -127.15250571	     34.65544110	    230.57650373	     12.98056328	   -174.85433792	    -75.23949580	   -209.34145544	    -28.56346826	   -255.49121362	     23.53613177	    365.31474247	     -6.00329325	      7.49189721	     65.89549109	    159.01138221	     38.84347411	    -76.79387546
      0.80400000	     -0.50986492	     -0.54656483	     -0.00556586	      0.14448771	     -9.22014146	   -146.84110055	     17.93540306	     -0.82750098	    -17.93540306	      0.82750098	     91.14903704	    117.25134458	      9.33966324	   -218.80895517	     10.48870028	   -101.55761058	    -19.31318696	   -121.74729684	     35.13436758	    247.44749993	     12.63101589	   -174.92787031	    -75.67843616	   -231.98678195	    -29.10224011	   -283.02591428	     24.27263408	    372.74200056	     -5.70560064	      6.08905433	     66.24961344	    181.74073012	     38.53245244	    -84.47461427
      0.80600000	     -0.51094024	     -0.52921472	     -0.00526185	      0.15896902	     -9.51235551	   -145.06091694	     17.93514464	      0.84282245	    -17.93514464	     -0.84282245	     91.40216643	    135.90937391	      8.86737255	   -253.53368160	     10.26953898	   -117.62430770	    -19.54971299	   -115.01560649	     35.63884058	    254.71282993	     12.28091100	   -174.93782789	    -76.16925345	   -257.32387381	    -29.68866774	   -300.23944321	     25.02873729	    382.60317577	     -5.37960132	      5.48969853	     66.64998959	    201.04559388	     38.18936235	    -90.37124241
      0.80800000	     -0.51198610	     -0.51843783	     -0.00493778	      0.16192794	     -9.79958104	   -142.07637172	     17.93928292	      3.27630236	    -17.93928292	     -3.27630236	     91.68785482	    147.33252865	      8.33454384	   -274.72763815	     10.02239867	   -127.39510950	    -19.77575704	   -112.03869610	     36.14339345	    247.22108779	     11.93275870	   -172.73193809	    -76.69591846	   -264.92736869	    -30.28745582	   -293.86781234	     25.79664595	    382.85055361	     -5.02399401	      4.81924718	     67.06954233	    198.65369662	     37.81398757	    -94.12147827
      0.81000000	     -0.51302058	     -0.51758770	     -0.00462769	      0.14465769	    -10.08100610	   -139.61523487	     17.94752569	      4.62636232	    -17.94752569	     -4.62636232	     91.97956176	    140.85251294	      7.79072173	   -262.53119469	      9.77028348	   -121.67868175	    -20.00192052	   -115.13521008	     36.61988391	    227.96538944	     11.59054811	   -169.67362177	    -77.21449986	   -250.86047206	    -30.84774655	   -262.88326227	     26.55438674	    374.49410089	     -4.64343250	      4.23115218	     67.45918714	    173.70989864	     37.41104356	    -92.58257573
      0.81200000	     -0.51405839	     -0.51959743	     -0.00437127	      0.10914440	    -10.35959812	   -139.49247339	     17.95613007	      3.49074354	    -17.95613007	     -3.49074354	     92.23720560	    113.28699545	      7.31059811	   -211.07171539	      9.54780371	    -97.78471994	    -20.23899243	   -122.27359405	     37.05464642	    207.81121087	     11.25137728	   -170.61913719	    -77.69688889	   -233.12232683	    -31.33154731	   -220.69217386	     27.30059128	    375.12203437	     -4.26721475	      6.10736620	     67.78935273	    145.35991861	     37.01464770	    -81.71389337
      0.81400000	     -0.51509452	     -0.51479784	     -0.00419502	      0.06752531	    -10.64080021	   -142.10227961	     17.95997339	      0.07951757	    -17.95997339	     -0.07951757	     92.42463741	     73.61865403	      6.96143160	   -137.12492845	      9.38606901	    -63.50627441	    -20.49066752	   -128.90012618	     37.45850114	    198.74168781	     10.90409504	   -177.51065948	    -78.15777115	   -231.56864965	    -31.73693839	   -188.13021416	     28.06854541	    396.25953291	     -3.93879986	     11.29406452	     68.07464759	    134.29269971	     36.67857785	    -64.24467102
      0.81600000	     -0.51611249	     -0.50233128	     -0.00409174	      0.03995418	    -10.92858107	   -145.56687017	     17.95633618	     -3.50272337	    -17.95633618	      3.50272337	     92.53900714	     44.94176751	      6.74842049	    -83.69592250	      9.28742763	    -38.75415499	    -20.75154977	   -130.96753842	     37.86050385	    206.01162427	     10.54111500	   -184.72697432	    -78.63488998	   -247.60473734	    -32.10206152	   -182.57896915	     28.88971290	    423.51629655	     -3.67075508	     15.52128586	     68.35760119	    144.67083647	     36.41958831	    -52.85816431
      0.81800000	     -0.51710148	     -0.48635855	     -0.00401793	      0.03834913	    -11.22161495	   -146.84945715	     17.94753612	     -4.72460604	    -17.94753612	      4.72460604	     92.62300448	     44.16314323	      6.59200049	    -82.23553122	      9.21500497	    -38.07238799	    -21.01063604	   -127.18201459	     38.29056856	    225.29267609	     10.17043329	   -184.07718888	    -79.15094657	   -267.76140913	    -32.48760342	   -207.56858800	     29.74940378	    430.95379512	     -3.41242085	     13.31547632	     68.67314508	    165.03880020	     36.17445732	    -59.97313744
      0.82000000	     -0.51805708	     -0.46910919	     -0.00392503	      0.05671713	    -11.51353487	   -144.46631792	     17.93957121	     -2.74487747	    -17.93957121	      2.74487747	     92.73166568	     67.39340268	      6.38968054	   -125.47176859	      9.12134622	    -58.07836591	    -21.25757111	   -119.33676098	     38.76174360	    244.67254845	      9.81052880	   -174.85365346	    -79.70214534	   -282.19687146	    -32.94184625	   -246.82453313	     30.59743638	    414.22834713	     -3.07956824	      5.55872742	     69.02907034	    182.01931071	     35.83830281	    -82.73495394
      0.82200000	     -0.51897628	     -0.44946685	     -0.00379120	      0.07502835	    -11.79802636	   -139.90758938	     17.93764731	      0.87266129	    -17.93764731	     -0.87266129	     92.89457247	     93.61210369	      6.08642096	   -174.24251226	      8.98099343	    -80.63040857	    -21.48779042	   -111.19594655	     39.26073724	    251.27488591	      9.47058848	   -166.29305112	    -80.27835464	   -294.55036664	    -33.46468699	   -270.74041527	     31.40798692	    399.99225677	     -2.63179121	      0.41655221	     69.41215149	    190.98342146	     35.36436853	   -101.45679568
